<?xml version="1.0" encoding="utf-8"?>
<svg width="80px" height="80px" id="svg1872" viewBox="146.59 144.078 161.362 150.911" xmlns="http://www.w3.org/2000/svg">
  <g style="stroke: rgb(255, 255, 255); fill: rgb(0, 24, 161); background-color:green; ">
    <g id="layer1"  transform="matrix(3.223467, 0, 0, 2.957059, 149.907791, 120.438667)">
      <rect ry="2.2340579" rx="2.0384057" y="12" x="4" height="40" width="40" id="rect4564" style=" stroke-width: 8; stroke: rgb(190, 190, 190); fill: rgb(190, 190, 190);"/>
      <rect style="fill-opacity: 1; stroke-width: 1px; " id="rect1880" width="40" height="24" x="4" y="12" rx="2.0384057" ry="2.2340579"/>
      <path style="fill-opacity: 0.75; stroke-width: 4; " d="M 14,30 L 33,30" id="path2768"/>
      <path id="path3655" d="M 7,30 L 12,30" style="fill-opacity: 0.75; stroke-width: 4; "/>
      <path style="fill-opacity: 0.75; stroke-width: 4; " d="M 35,30 L 41,30" id="path3657"/>
      <path style="fill-opacity: 0.75; stroke-width: 4; " d="M 7,16 L 11,16" id="path3659"/>
      <path id="path3661" d="M 13,16 L 17,16" style="fill-opacity: 0.75; stroke-width: 4; "/>
      <path style="fill-opacity: 0.75; stroke-width: 4; " d="M 19,16 L 23,16" id="path3663"/>
      <path id="path3665" d="M 25,16 L 29,16" style="fill-opacity: 0.75; stroke-width: 4; "/>
      <path style="fill-opacity: 0.75; stroke-width: 4; " d="M 31,16 L 35,16" id="path3667"/>
      <path id="path3669" d="M 34,23 L 38,23" style="fill-opacity: 0.75; stroke-width: 4; "/>
      <path style="fill-opacity: 0.75; stroke-width: 4; " d="M 28,23 L 32,23" id="path3671"/>
      <path id="path3673" d="M 22,23 L 26,23" style="fill-opacity: 0.75; stroke-width: 4; "/>
      <path style="fill-opacity: 0.75; stroke-width: 4; " d="M 16,23 L 20,23" id="path3675"/>
      <path id="path5451" d="M 37,16 L 41,16" style="fill-opacity: 0.75; stroke-width: 4; "/>
      <path id="path5453" d="M 10,23 L 14,23" style="fill-opacity: 0.75; stroke-width: 4; "/>
    </g>
    <path style="fill-opacity: 1; stroke-width:0" d="M 185.904 242.045 C 186.113 241.85 186.285 241.752 186.421 241.752 C 186.63 241.752 186.828 241.928 187.016 242.279 C 187.204 242.631 187.408 243.217 187.627 244.037 C 187.899 245.053 188.035 245.863 188.035 246.469 C 188.035 247.133 187.847 247.65 187.471 248.022 L 178.304 256.576 L 187.471 265.131 C 187.847 265.502 188.035 266.02 188.035 266.684 C 188.035 267.289 187.899 268.1 187.627 269.115 C 187.408 269.936 187.204 270.522 187.016 270.873 C 186.828 271.225 186.63 271.4 186.421 271.4 C 186.285 271.4 186.113 271.303 185.904 271.107 L 173.682 259.33 C 173.421 259.076 173.236 258.754 173.126 258.363 C 173.016 257.973 172.961 257.377 172.961 256.576 C 172.961 255.775 173.016 255.18 173.126 254.789 C 173.236 254.398 173.421 254.076 173.682 253.822 L 185.904 242.045 Z M 207.633 238.881 C 207.884 238.881 208.077 238.964 208.213 239.13 C 208.348 239.296 208.45 239.594 208.518 240.024 C 208.586 240.453 208.62 241.078 208.62 241.899 C 208.62 242.719 208.586 243.344 208.518 243.774 C 208.45 244.203 208.348 244.496 208.213 244.652 C 208.077 244.809 207.884 244.887 207.633 244.887 L 206.755 244.887 L 202.588 255.961 L 207.147 267.65 L 208.103 267.65 C 208.354 267.65 208.547 267.733 208.683 267.899 C 208.818 268.065 208.92 268.363 208.988 268.793 C 209.056 269.223 209.09 269.848 209.09 270.668 C 209.09 271.488 209.056 272.113 208.988 272.543 C 208.92 272.973 208.818 273.266 208.683 273.422 C 208.547 273.578 208.354 273.656 208.103 273.656 L 201.773 273.656 C 201.522 273.656 201.329 273.578 201.193 273.422 C 201.057 273.266 200.955 272.973 200.887 272.543 C 200.82 272.113 200.786 271.488 200.786 270.668 C 200.786 269.848 200.82 269.223 200.887 268.793 C 200.955 268.363 201.057 268.065 201.193 267.899 C 201.329 267.733 201.522 267.65 201.773 267.65 L 202.588 267.65 L 199.877 260.502 L 197.197 267.65 L 197.793 267.65 C 198.044 267.65 198.237 267.733 198.373 267.899 C 198.508 268.065 198.61 268.363 198.678 268.793 C 198.746 269.223 198.78 269.848 198.78 270.668 C 198.78 271.488 198.746 272.113 198.678 272.543 C 198.61 272.973 198.508 273.266 198.373 273.422 C 198.237 273.578 198.044 273.656 197.793 273.656 L 191.776 273.656 C 191.525 273.656 191.332 273.578 191.196 273.422 C 191.061 273.266 190.959 272.973 190.891 272.543 C 190.823 272.113 190.789 271.488 190.789 270.668 C 190.789 269.848 190.823 269.223 190.891 268.793 C 190.959 268.363 191.061 268.065 191.196 267.899 C 191.332 267.733 191.525 267.65 191.776 267.65 L 192.748 267.65 L 197.307 255.639 L 193.186 244.887 L 192.246 244.887 C 191.995 244.887 191.802 244.809 191.666 244.652 C 191.531 244.496 191.429 244.203 191.361 243.774 C 191.293 243.344 191.259 242.719 191.259 241.899 C 191.259 241.078 191.293 240.453 191.361 240.024 C 191.429 239.594 191.531 239.296 191.666 239.13 C 191.802 238.964 191.995 238.881 192.246 238.881 L 198.42 238.881 C 198.67 238.881 198.864 238.964 198.999 239.13 C 199.135 239.296 199.237 239.594 199.305 240.024 C 199.373 240.453 199.407 241.078 199.407 241.899 C 199.407 242.719 199.373 243.344 199.305 243.774 C 199.237 244.203 199.135 244.496 198.999 244.652 C 198.864 244.809 198.67 244.887 198.42 244.887 L 197.746 244.887 L 200.034 251.01 L 202.305 244.887 L 201.929 244.887 C 201.679 244.887 201.485 244.809 201.35 244.652 C 201.214 244.496 201.112 244.203 201.044 243.774 C 200.976 243.344 200.942 242.719 200.942 241.899 C 200.942 241.078 200.976 240.453 201.044 240.024 C 201.112 239.594 201.214 239.296 201.35 239.13 C 201.485 238.964 201.679 238.881 201.929 238.881 L 207.633 238.881 Z M 227.341 238.881 C 227.592 238.881 227.785 238.964 227.921 239.13 C 228.056 239.296 228.158 239.594 228.226 240.024 C 228.294 240.453 228.328 241.078 228.328 241.899 C 228.328 242.719 228.294 243.344 228.226 243.774 C 228.158 244.203 228.056 244.496 227.921 244.652 C 227.785 244.809 227.592 244.887 227.341 244.887 L 226.495 244.887 L 226.714 267.65 L 227.654 267.65 C 227.905 267.65 228.098 267.733 228.234 267.899 C 228.37 268.065 228.472 268.363 228.54 268.793 C 228.607 269.223 228.641 269.848 228.641 270.668 C 228.641 271.488 228.607 272.113 228.54 272.543 C 228.472 272.973 228.37 273.266 228.234 273.422 C 228.098 273.578 227.905 273.656 227.654 273.656 L 221.794 273.656 C 221.543 273.656 221.35 273.578 221.214 273.422 C 221.079 273.266 220.977 272.973 220.909 272.543 C 220.841 272.113 220.807 271.488 220.807 270.668 C 220.807 269.848 220.841 269.223 220.909 268.793 C 220.977 268.363 221.079 268.065 221.214 267.899 C 221.35 267.733 221.543 267.65 221.794 267.65 L 223.236 267.65 L 223.142 250.307 L 220.776 262.26 C 220.64 262.943 220.452 263.427 220.212 263.71 C 219.971 263.993 219.632 264.135 219.193 264.135 C 218.744 264.135 218.399 263.993 218.159 263.71 C 217.919 263.427 217.726 262.943 217.579 262.26 L 215.198 250.395 L 215.104 267.65 L 216.561 267.65 C 216.812 267.65 217.005 267.733 217.141 267.899 C 217.276 268.065 217.378 268.363 217.446 268.793 C 217.514 269.223 217.548 269.848 217.548 270.668 C 217.548 271.488 217.514 272.113 217.446 272.543 C 217.378 272.973 217.276 273.266 217.141 273.422 C 217.005 273.578 216.812 273.656 216.561 273.656 L 210.701 273.656 C 210.45 273.656 210.257 273.578 210.121 273.422 C 209.985 273.266 209.883 272.973 209.815 272.543 C 209.748 272.113 209.714 271.488 209.714 270.668 C 209.714 269.848 209.748 269.223 209.815 268.793 C 209.883 268.363 209.985 268.065 210.121 267.899 C 210.257 267.733 210.45 267.65 210.701 267.65 L 211.625 267.65 L 211.86 244.887 L 211.014 244.887 C 210.763 244.887 210.57 244.809 210.434 244.652 C 210.299 244.496 210.197 244.203 210.129 243.774 C 210.061 243.344 210.027 242.719 210.027 241.899 C 210.027 241.078 210.061 240.453 210.129 240.024 C 210.197 239.594 210.299 239.296 210.434 239.13 C 210.57 238.964 210.763 238.881 211.014 238.881 L 215.464 238.881 C 215.683 238.881 215.864 238.949 216.005 239.086 C 216.146 239.223 216.247 239.457 216.31 239.789 L 219.178 254.174 L 222.029 239.789 C 222.092 239.457 222.194 239.223 222.335 239.086 C 222.476 238.949 222.656 238.881 222.875 238.881 L 227.341 238.881 Z M 240.343 238.881 C 240.593 238.881 240.787 238.964 240.922 239.13 C 241.058 239.296 241.16 239.594 241.228 240.024 C 241.296 240.453 241.33 241.078 241.33 241.899 C 241.33 242.719 241.296 243.344 241.228 243.774 C 241.16 244.203 241.058 244.496 240.922 244.652 C 240.787 244.809 240.593 244.887 240.343 244.887 L 236.927 244.887 L 236.927 267.357 L 242.427 267.357 L 242.427 258.217 C 242.427 257.553 242.586 257.079 242.904 256.796 C 243.223 256.513 243.753 256.371 244.495 256.371 C 244.986 256.371 245.364 256.435 245.631 256.562 C 245.897 256.689 246.083 256.879 246.187 257.133 C 246.292 257.387 246.344 257.748 246.344 258.217 L 246.344 271.752 C 246.344 272.416 246.265 272.899 246.109 273.202 C 245.952 273.505 245.691 273.656 245.325 273.656 L 230.722 273.656 C 230.471 273.656 230.278 273.578 230.142 273.422 C 230.007 273.266 229.905 272.973 229.837 272.543 C 229.769 272.113 229.735 271.488 229.735 270.668 C 229.735 269.848 229.769 269.223 229.837 268.793 C 229.905 268.363 230.007 268.065 230.142 267.899 C 230.278 267.733 230.471 267.65 230.722 267.65 L 233.01 267.65 L 233.01 244.887 L 230.722 244.887 C 230.471 244.887 230.278 244.809 230.142 244.652 C 230.007 244.496 229.905 244.203 229.837 243.774 C 229.769 243.344 229.735 242.719 229.735 241.899 C 229.735 241.078 229.769 240.453 229.837 240.024 C 229.905 239.594 230.007 239.296 230.142 239.13 C 230.278 238.964 230.471 238.881 230.722 238.881 L 240.343 238.881 Z M 262.307 232.67 C 263.007 232.67 263.594 232.885 264.07 233.315 C 264.545 233.744 264.782 234.291 264.782 234.955 C 264.782 235.17 264.762 235.365 264.72 235.541 L 254.284 282.943 C 254.096 283.783 253.668 284.203 253 284.203 C 252.3 284.203 251.712 283.988 251.237 283.559 C 250.762 283.129 250.524 282.582 250.524 281.918 C 250.524 281.703 250.545 281.508 250.587 281.332 L 261.022 233.93 C 261.21 233.09 261.638 232.67 262.307 232.67 Z M 283.911 253.822 C 284.172 254.076 284.357 254.398 284.467 254.789 C 284.577 255.18 284.631 255.775 284.631 256.576 C 284.631 257.377 284.577 257.973 284.467 258.363 C 284.357 258.754 284.172 259.076 283.911 259.33 L 271.689 271.107 C 271.48 271.303 271.308 271.4 271.172 271.4 C 270.963 271.4 270.765 271.225 270.577 270.873 C 270.389 270.522 270.185 269.936 269.966 269.115 C 269.694 268.1 269.558 267.289 269.558 266.684 C 269.558 266.02 269.746 265.502 270.122 265.131 L 279.288 256.576 L 270.122 248.022 C 269.746 247.65 269.558 247.133 269.558 246.469 C 269.558 245.863 269.694 245.053 269.966 244.037 C 270.185 243.217 270.389 242.631 270.577 242.279 C 270.765 241.928 270.963 241.752 271.172 241.752 C 271.308 241.752 271.48 241.85 271.689 242.045 L 283.911 253.822 Z" />
  </g>
</svg>